<?xml version="1.0" encoding="utf-8"?>
<svg xmlns="http://www.w3.org/2000/svg" viewBox="0 0 24 24" width="96" height="96">
  <path d="M14.341,21c-2.001,0-2.57-0.804-2.889-1.672c-0.015-0.039-0.026-0.078-0.041-0.115c-0.08,0.009-0.2,0.034-0.288,0.053c-0.445,0.093-1.188,0.248-1.912-0.254c-0.774-0.536-0.65-1.538-0.529-2.507c0.033-0.271,0.088-0.703,0.089-1.008c-0.174,0.161-0.392,0.407-0.553,0.59C7.503,16.895,6.523,18,5,18c-2.468,0-4-2.299-4-6c0-4.188,2.828-7,5.47-7c1.859,0,3.045,1.643,3.452,2.613c0.214,0.509-0.025,1.095-0.535,1.309C8.884,9.136,8.295,8.898,8.08,8.392C8.066,8.362,7.444,7,6.47,7C5.021,7,3,8.902,3,12c0,0.668,0.097,4,2,4c0.623,0,1.181-0.63,1.72-1.238c0.67-0.757,1.785-2.021,3.223-1.106c1.028,0.655,0.859,2.009,0.724,3.097c-0.021,0.171-0.049,0.391-0.064,0.579c0.039-0.008,0.077-0.017,0.111-0.023c0.427-0.088,1.142-0.239,1.831,0.224c0.504,0.34,0.674,0.803,0.786,1.108c0.028,0.078,0.071,0.196,0.095,0.224c0,0,0.175,0.137,0.916,0.137c0.553,0,1,0.447,1,1S14.894,21,14.341,21z" opacity=".35" fill="#85888B" />
  <path d="M21.373,6.109c-1.11-0.366-2.319,0.225-2.86,1.261L13.389,17.2c-0.287,0.552-0.344,1.196-0.157,1.79l0.434,1.378c0.149,0.475,0.656,0.739,1.131,0.59l1.378-0.434c0.593-0.187,1.089-0.601,1.376-1.154l5.183-9.942C23.393,8.165,22.788,6.577,21.373,6.109z" fill="#85888B" />
</svg>