<svg width="50" height="50" viewBox="0 0 50 50" fill="none" xmlns="http://www.w3.org/2000/svg">
<path d="M22.5676 0.0192871C17.5162 0.179523 13.0307 0.542728 11.1298 0.927299C9.92298 1.173 8.20357 1.73917 7.35988 2.16647C3.95309 3.88635 1.80649 6.83472 0.877362 11.065C0.65309 12.0905 0.332702 15.5196 0.12979 18.9166C-0.190598 24.5677 0.108431 33.9896 0.738527 37.9849C1.5395 43.0697 3.94241 46.4347 8.00066 48.1866C10.19 49.1267 11.9414 49.4258 17.8152 49.8638C20.2395 50.0454 29.3705 50.0454 31.9657 49.8638C38.0103 49.4472 40.0715 49.084 42.3462 48.005C43.7666 47.332 44.4394 46.8727 45.4647 45.8792C47.5792 43.8602 48.8074 41.211 49.3093 37.611C50.4307 29.5671 50.1424 14.6329 48.7647 9.90059C47.8569 6.73857 46.3618 4.58071 43.9802 2.97834C41.9938 1.63234 39.5909 0.884567 36.1414 0.532047C32.8307 0.20089 25.5579 -0.0768547 22.5676 0.0192871ZM27.5336 6.0549C30.4599 6.39674 33.856 7.79614 36.4297 9.71899C37.5191 10.5415 39.3773 12.3789 40.221 13.4899C41.8657 15.6478 43.1579 18.468 43.7132 21.1279C43.9482 22.2816 44.1725 24.3113 44.1191 24.824L44.087 25.1872L42.1861 23.3605L40.2851 21.5338L38.555 23.1896C37.6152 24.0976 36.7929 24.8454 36.7501 24.8454C36.6967 24.8454 35.8851 24.0976 34.9346 23.1789L33.2259 21.5125L32.0084 22.7196C31.3463 23.3819 30.7802 23.9053 30.7589 23.884C30.7375 23.8519 30.6094 23.5208 30.4812 23.1362C29.5948 20.4335 26.6472 18.7457 23.8492 19.3332C22.6744 19.5789 21.788 20.0703 20.9016 20.957C18.7764 23.0614 18.5628 26.1059 20.3676 28.5629C21.4356 30.005 23.1657 30.8596 25.0239 30.849C26.0385 30.8383 26.6686 30.6994 27.5657 30.2614C28.2812 29.9196 28.8472 29.4175 32.2006 26.138L33.2365 25.1231L34.9453 26.8003C35.8851 27.719 36.6861 28.4774 36.7395 28.4774C36.7929 28.4774 37.6152 27.7297 38.5657 26.811L40.3064 25.1338L41.8763 26.6721C42.7414 27.5053 43.5424 28.2852 43.6492 28.3813C43.8521 28.5736 43.8521 28.595 43.553 29.7273C42.6987 33.0175 41.1715 35.7736 38.8006 38.2412C35.3084 41.884 30.7162 43.9777 25.8035 44.1487C18.157 44.4264 11.2152 40.303 7.82978 33.4448C5.58707 28.9154 5.22396 23.7558 6.80454 19.0234C8.36376 14.3766 11.8346 10.3172 16.1599 8.09525C19.8657 6.18309 23.3579 5.5635 27.5336 6.0549Z" fill="#582FFF"/>
</svg>
